<?xml version="1.0" encoding="UTF-8"?>
<svg version="1.1" xmlns="http://www.w3.org/2000/svg" width="400" height="400">
<path d="M0 0 C132 0 264 0 400 0 C400 132 400 264 400 400 C268 400 136 400 0 400 C0 268 0 136 0 0 Z " fill="#FF0000" transform="translate(0,0)"/>
<path d="M0 0 C13.61249054 -0.37165772 27.22376415 -0.65547046 40.84030533 -0.82899475 C47.16424695 -0.91230714 53.48470455 -1.02516986 59.80664062 -1.20703125 C65.91483151 -1.38163257 72.01968579 -1.47669217 78.13018036 -1.51803589 C80.45414519 -1.54747177 82.77793857 -1.60496408 85.1004715 -1.69168091 C102.80896679 -2.32621943 102.80896679 -2.32621943 108.14270973 1.562006 C111.83404563 5.29127863 114.50822468 9.48779296 116.96819973 14.09974384 C118.34534803 16.63602398 119.99730991 18.93481478 121.69921875 21.26171875 C122.69904754 22.73445037 123.69526412 24.20964209 124.6875 25.6875 C125.76792823 27.28145402 126.84865917 28.87520291 127.9296875 30.46875 C128.44499023 31.23058594 128.96029297 31.99242188 129.49121094 32.77734375 C131.74367179 36.09553203 134.02557254 39.39300945 136.3125 42.6875 C137.03050781 43.72261719 137.74851563 44.75773437 138.48828125 45.82421875 C139.23658203 46.90123047 139.23658203 46.90123047 140 48 C143.82105338 44.49510943 146.62440203 40.48532836 149.5625 36.25 C150.08553711 35.50282715 150.60857422 34.7556543 151.14746094 33.98583984 C155.13319866 28.28078781 159.08259164 22.54996816 162.99438477 16.79394531 C163.81586612 15.58994705 164.66027499 14.40125302 165.5275116 13.2297821 C167.10039934 10.99264278 167.10039934 10.99264278 168.1774292 8.24317932 C170.06942173 4.54786334 171.66254142 2.51577562 175 0 C182.67997472 -2.10607377 191.09315759 -1.2745102 198.96875 -1.07421875 C201.33382545 -1.0536886 203.69894786 -1.03803702 206.06408691 -1.02705383 C212.27301422 -0.98516095 218.47908638 -0.87720591 224.68688965 -0.75531006 C231.02784602 -0.64254631 237.36926631 -0.59249391 243.7109375 -0.53710938 C256.14187581 -0.41932739 268.57070001 -0.23172381 281 0 C281.28099299 20.61921546 281.49225751 41.23811286 281.62174606 61.85885811 C281.68348317 71.43471613 281.76756656 81.00938088 281.90527344 90.58447266 C282.02531809 98.93548639 282.10240019 107.28563561 282.12906194 115.63748825 C282.14463559 120.05555893 282.1809193 124.47115771 282.26876068 128.88843155 C282.87918149 160.81462849 282.87918149 160.81462849 275.27832031 168.82373047 C273.25469289 170.65129709 271.1393735 172.30258365 269 174 C266.99768403 176.30578625 265.18474505 178.72944689 263.375 181.1875 C259.29016914 186.47864888 254.9558087 191.44180947 250.41015625 196.34765625 C244.33541334 203.03282713 238.78455132 210.16317068 233.41015625 217.41796875 C232.94480469 217.94003906 232.47945312 218.46210938 232 219 C231.34 219 230.68 219 230 219 C229.34 220.65 228.68 222.3 228 224 C227.34 224 226.68 224 226 224 C225.72800781 224.57878906 225.45601562 225.15757812 225.17578125 225.75390625 C222.11231548 231.60604185 217.70678741 236.42395668 213 241 C212.34 241.99 211.68 242.98 211 244 C210.34 244 209.68 244 209 244 C208.6596875 244.78117187 208.6596875 244.78117187 208.3125 245.578125 C206.52480639 248.87684535 204.28109676 251.78457421 202 254.75 C201.54882812 255.35199219 201.09765625 255.95398438 200.6328125 256.57421875 C199.47177498 258.08906356 198.24072061 259.54969821 197 261 C196.34 261 195.68 261 195 261 C194.72744385 261.59022949 194.4548877 262.18045898 194.17407227 262.78857422 C193.0299285 264.94362812 191.82057614 266.5558293 190.21484375 268.3828125 C189.41916992 269.29740234 189.41916992 269.29740234 188.60742188 270.23046875 C188.05634766 270.85566406 187.50527344 271.48085938 186.9375 272.125 C185.8406326 273.37601485 184.74549606 274.62855005 183.65234375 275.8828125 C182.92519165 276.70869873 182.92519165 276.70869873 182.18334961 277.55126953 C180.90366815 279.00977737 180.90366815 279.00977737 180 281 C179.34 281 178.68 281 178 281 C177.75459473 281.52303711 177.50918945 282.04607422 177.25634766 282.58496094 C173.79762411 289.2335605 170.06591997 296.38772405 162.49230957 298.7980957 C156.33383685 299.90875981 150.18995687 299.9376263 143.94921875 299.8046875 C140.63100731 299.75009883 137.3398659 299.84477718 134.0234375 299.953125 C117.74314855 300.09480139 117.74314855 300.09480139 111.73901367 294.74804688 C108.86784121 291.68578931 106.47555034 288.3976145 104.22113037 284.8629303 C102.37839342 282.05169034 100.23574026 279.56234485 98.0625 277 C97.36382812 276.13503906 96.66515625 275.27007812 95.9453125 274.37890625 C94.15373273 272.18799846 92.31047381 270.05875174 90.4375 267.9375 C88 265 88 265 88 263 C87.34 263 86.68 263 86 263 C84.2161203 260.88877538 82.53597078 258.76738319 80.875 256.5625 C76.9091396 251.3849036 72.82961615 246.43357874 68.36328125 241.671875 C67 240 67 240 67 238 C66.34 238 65.68 238 65 238 C63.0546875 235.8828125 63.0546875 235.8828125 60.875 233.125 C60.15054688 232.22007812 59.42609375 231.31515625 58.6796875 230.3828125 C57 228 57 228 57 226 C56.34 226 55.68 226 55 226 C53.0616214 223.76658661 51.23813481 221.52763358 49.4375 219.1875 C48.93025391 218.54490234 48.42300781 217.90230469 47.90039062 217.24023438 C45.72947117 214.45070406 44.13007768 212.39023304 43 209 C42.34 209 41.68 209 41 209 C36 203.52380952 36 203.52380952 36 201 C35.34 201 34.68 201 34 201 C32.0546875 198.8828125 32.0546875 198.8828125 29.875 196.125 C29.15054688 195.22007812 28.42609375 194.31515625 27.6796875 193.3828125 C26 191 26 191 26 189 C25.34 189 24.68 189 24 189 C22.44140625 187.26953125 22.44140625 187.26953125 20.5625 184.8125 C16.69428029 179.83296855 12.65649002 175.03679484 8.50610352 170.29223633 C5 166.21841303 5 166.21841303 5 164 C4.34 164 3.68 164 3 164 C0.67744741 161.69506394 0.03442693 160.27894282 -0.36914349 157.00902939 C-0.36637811 155.83282154 -0.36361273 154.65661369 -0.36076355 153.44476318 C-0.36332682 152.78797711 -0.3658901 152.13119103 -0.36853105 151.45450234 C-0.37346926 149.25555064 -0.35697631 147.0572868 -0.34057617 144.85839844 C-0.3397299 143.28147396 -0.34020504 141.7045483 -0.34190369 140.12762451 C-0.34276508 135.84690273 -0.32511609 131.5664327 -0.30418181 127.28576946 C-0.28543898 122.8121283 -0.28366646 118.33848149 -0.28010559 113.86480713 C-0.27077809 105.39338525 -0.24615476 96.9220794 -0.21605712 88.45070863 C-0.18253506 78.80631754 -0.16603262 69.16192093 -0.15097082 59.5174861 C-0.11960582 39.67825928 -0.0668316 19.83913695 0 0 Z " fill="#FFFEFE" transform="translate(59,51)"/>
<path d="M0 0 C9.57 0 19.14 0 29 0 C29 0.66 29 1.32 29 2 C29.66 2 30.32 2 31 2 C32.55078125 4.16015625 32.55078125 4.16015625 34.3125 7.0625 C36.42157775 10.48644213 38.54207802 13.83210236 40.9375 17.0625 C43 20 43 20 43 22 C43.66 22 44.32 22 45 22 C46.3046875 23.80859375 46.3046875 23.80859375 47.875 26.4375 C51.1497489 31.74342226 54.64261526 36.85218793 58.25 41.9375 C59.02899658 43.03759399 59.02899658 43.03759399 59.82373047 44.15991211 C61.20996186 46.11102942 62.59721439 48.06074924 64 50 C64.42833633 50.68669266 64.85667267 51.37338531 65.29798889 52.08088684 C66.82486767 54.16834964 66.82486767 54.16834964 69.10710144 54.51898193 C70.32288628 54.5323056 70.32288628 54.5323056 71.56323242 54.54589844 C72.94432442 54.57547638 72.94432442 54.57547638 74.35331726 54.60565186 C75.34402725 54.60688049 76.33473724 54.60810913 77.35546875 54.609375 C78.37224197 54.62591125 79.3890152 54.64244751 80.43659973 54.65948486 C83.6869604 54.70810414 86.93685278 54.72936706 90.1875 54.75 C92.3899977 54.77814797 94.59247345 54.80807373 96.79492188 54.83984375 C102.19652916 54.91386646 107.598004 54.96542723 113 55 C113.28955566 54.2359082 113.57911133 53.47181641 113.87744141 52.68457031 C115.26879636 49.35718035 117.24665976 46.63127322 119.375 43.75 C120.28307886 42.49908015 121.19060742 41.24776068 122.09765625 39.99609375 C122.57348145 39.34237793 123.04930664 38.68866211 123.53955078 38.01513672 C125.48829045 35.32625387 127.41383292 32.62168894 129.32641602 29.90698242 C130.32590997 28.49829857 131.33842 27.09876917 132.36303711 25.70825195 C135.72381659 21.08842403 138.38198353 16.47660691 140.72705078 11.26220703 C143.24585927 7.10254186 146.75434837 3.62118157 150 0 C159.57 0 169.14 0 179 0 C179 23.1 179 46.2 179 70 C166.46 70 153.92 70 141 70 C142.03125 73.485625 143.0625 76.97125 144.125 80.5625 C146.67371694 89.26262698 149.12609125 97.9837317 151.4375 106.75 C151.69611816 107.71881104 151.95473633 108.68762207 152.22119141 109.68579102 C152.45628418 110.58869873 152.69137695 111.49160645 152.93359375 112.421875 C153.2438147 113.60668457 153.2438147 113.60668457 153.56030273 114.81542969 C154 117 154 117 154 121 C153.34 121 152.68 121 152 121 C151.6596875 121.78117187 151.6596875 121.78117187 151.3125 122.578125 C149.52480639 125.87684535 147.28109676 128.78457421 145 131.75 C144.54882812 132.35199219 144.09765625 132.95398438 143.6328125 133.57421875 C142.47177498 135.08906356 141.24072061 136.54969821 140 138 C139.34 138 138.68 138 138 138 C137.72744385 138.59022949 137.4548877 139.18045898 137.17407227 139.78857422 C136.0299285 141.94362812 134.82057614 143.5558293 133.21484375 145.3828125 C132.68439453 145.99253906 132.15394531 146.60226563 131.60742188 147.23046875 C131.05634766 147.85566406 130.50527344 148.48085937 129.9375 149.125 C128.8406326 150.37601485 127.74549606 151.62855005 126.65234375 152.8828125 C125.92519165 153.70869873 125.92519165 153.70869873 125.18334961 154.55126953 C123.90366815 156.00977737 123.90366815 156.00977737 123 158 C122.34 158 121.68 158 121 158 C120.77441406 158.53496094 120.54882812 159.06992187 120.31640625 159.62109375 C118.57351668 162.77070725 116.28779204 165.35984455 113.9375 168.0625 C112.94720195 169.21683515 111.95763068 170.37179416 110.96875 171.52734375 C110.47246094 172.10597168 109.97617188 172.68459961 109.46484375 173.28076172 C107.25808862 175.87075666 105.09543965 178.49413527 102.9375 181.125 C102.22464844 181.99382812 101.51179688 182.86265625 100.77734375 183.7578125 C98.89122609 186.07414552 98.89122609 186.07414552 97 189 C96.34 189 95.68 189 95 189 C94.7525 189.598125 94.505 190.19625 94.25 190.8125 C92.83629988 193.28647521 91.34944617 194.43370255 89 196 C87.5 194.625 87.5 194.625 86 193 C86 192.34 86 191.68 86 191 C85.34 191 84.68 191 84 191 C82.44140625 189.26953125 82.44140625 189.26953125 80.5625 186.8125 C77.3152286 182.64752146 73.98952841 178.57889378 70.5625 174.5625 C67.20422557 170.61858018 63.88521502 166.6509169 60.625 162.625 C56.46334835 157.50870425 52.14817013 152.53760692 47.81494141 147.56713867 C43.7437848 142.88656695 39.77801384 138.13791492 35.87890625 133.3125 C34.26312308 131.32384379 32.61132211 129.37708217 30.9375 127.4375 C29 125 29 125 29 123 C28.34 123 27.68 123 27 123 C25.15076186 119.18233736 24.82613412 117.10278461 25.96630859 113.02612305 C26.22672943 112.06550461 26.48715027 111.10488617 26.75546265 110.11515808 C27.05014435 109.0910231 27.34482605 108.06688812 27.6484375 107.01171875 C27.93981598 105.95338333 28.23119446 104.89504791 28.53140259 103.80464172 C29.46467119 100.42800567 30.41950349 97.05790592 31.375 93.6875 C32.01184701 91.39818387 32.647281 89.10847416 33.28125 86.81835938 C34.8352072 81.20662128 36.41817414 75.60424365 38 70 C25.46 70 12.92 70 0 70 C0 46.9 0 23.8 0 0 Z " fill="#FF0000" transform="translate(110,102)"/>
</svg>
